<svg width="45" height="32" fill="none" xmlns="http://www.w3.org/2000/svg"><path d="M8.742 8.8H5.516c-.7 0-1.262.562-1.262 1.263 0 .701.561 1.262 1.262 1.262h3.226c.701 0 1.262-.56 1.262-1.262 0-.701-.56-1.262-1.262-1.262ZM8.742 14.738H3.366c-.701 0-1.262.56-1.262 1.262 0 .701.56 1.262 1.262 1.262h5.376c.701 0 1.262-.56 1.262-1.262 0-.701-.56-1.262-1.262-1.262ZM8.742 20.628h-7.48c-.701 0-1.262.56-1.262 1.262 0 .701.561 1.262 1.262 1.262h7.48c.701 0 1.262-.56 1.262-1.262 0-.701-.56-1.262-1.262-1.262ZM43.664 6.697 29.452.105a1.427 1.427 0 0 0-1.075 0L14.165 6.697c-.467.187-.748.654-.748 1.169V24.18c0 .514.28.935.748 1.169l14.212 6.545c.327.14.748.14 1.075 0l14.212-6.592c.468-.187.748-.654.748-1.169V7.866c0-.515-.28-.935-.748-1.17ZM27.629 28.763 15.942 23.34V9.83l4.3 2.01v7.48c0 .7.561 1.261 1.263 1.261.701 0 1.262-.56 1.262-1.262v-6.311l4.862 2.244v13.51Zm1.309-15.708-4.348-2.01 4.675-2.15c.655-.281.935-1.03.608-1.684a1.213 1.213 0 0 0-1.683-.608L21.598 9.69l-3.833-1.777 11.22-5.189 11.22 5.19-11.267 5.142Zm12.95 10.285L30.2 28.763V15.252l11.688-5.423v13.51Z" fill="#E9793A"/><path d="M33.8 19.226a.942.942 0 0 0 .514-.14l4.441-2.058c.655-.28.935-1.028.608-1.683a1.213 1.213 0 0 0-1.683-.607l-4.441 2.057a1.213 1.213 0 0 0-.608 1.683c.234.467.701.748 1.169.748ZM33.8 23.994a.942.942 0 0 0 .514-.14l4.441-2.057c.655-.28.935-1.029.608-1.683a1.213 1.213 0 0 0-1.683-.608l-4.441 2.057a1.213 1.213 0 0 0-.608 1.683c.234.468.701.748 1.169.748Z" fill="#E9793A"/></svg>