<svg width="40" height="26" fill="none" xmlns="http://www.w3.org/2000/svg"><rect x="1.25" y="1.25" width="37.5" height="23.5" rx="1.75" stroke="#E9793A" stroke-width="2.5" stroke-linecap="round" stroke-linejoin="round"/><path d="M1.667 6.5h36.666M6.74 13.054h9.094m-9.094 3.9h4.928M25.833 19.5l8.334-8.125" stroke="#E9793A" stroke-width="2.5" stroke-linecap="round"/><path d="M28.167 12.188c0 .77-.648 1.437-1.5 1.437-.853 0-1.5-.667-1.5-1.438 0-.77.647-1.437 1.5-1.437.852 0 1.5.667 1.5 1.438ZM34.833 18.688c0 .77-.647 1.437-1.5 1.437-.852 0-1.5-.667-1.5-1.438 0-.77.648-1.437 1.5-1.437.853 0 1.5.667 1.5 1.438Z" stroke="#E9793A" stroke-width="2"/></svg>