<svg width="30" height="32" fill="none" xmlns="http://www.w3.org/2000/svg"><g clip-path="url(#a)"><path d="M1.59 32V19.02l-.213-.106C.53 18.437 0 17.484 0 16.53v-5.298a2.736 2.736 0 0 1 2.755-2.755h1.324l-.317-.636a5.504 5.504 0 0 1-.583-2.437c0-1.43.583-2.808 1.59-3.815A5.417 5.417 0 0 1 8.582 0a7.603 7.603 0 0 1 6.04 3.02l.317.477.318-.477A7.603 7.603 0 0 1 21.298 0c.848 0 1.695.212 2.437.583 2.65 1.377 3.709 4.609 2.331 7.258l-.265.636h1.325a2.736 2.736 0 0 1 2.755 2.755v5.298c0 .953-.53 1.907-1.378 2.384l-.212.106V32H1.59Zm14.516-2.331h9.854V19.285h-9.854v10.384Zm-12.185 0h9.854V19.285H3.92v10.384Zm12.185-12.715H27.55v-6.146H16.106v6.146Zm-13.775 0h11.444v-6.146H2.33v6.146ZM21.298 2.33a5.2 5.2 0 0 0-5.192 5.192v.954h5.192a3.075 3.075 0 0 0 3.073-3.073 3.075 3.075 0 0 0-3.073-3.073Zm-12.715 0A3.075 3.075 0 0 0 5.51 5.404a3.075 3.075 0 0 0 3.073 3.073h5.192v-.954a5.2 5.2 0 0 0-5.192-5.192Z" fill="#E9793A"/></g><defs><clipPath id="a"><path fill="#fff" d="M0 0h29.881v32H0z"/></clipPath></defs></svg>