<svg width="32" height="32" fill="none" xmlns="http://www.w3.org/2000/svg"><path d="M16 16a5.818 5.818 0 0 1-5.818-5.818V1.455A1.454 1.454 0 0 1 11.636 0h8.728a1.454 1.454 0 0 1 1.454 1.455v8.727A5.818 5.818 0 0 1 16 16ZM13.091 2.91v7.272a2.91 2.91 0 0 0 5.818 0V2.909h-5.818Z" fill="#E9793A"/><path d="M6.546 16c-1.01.02-2.01-.21-2.91-.67A6.502 6.502 0 0 1 0 9.456c0-.17.03-.336.087-.495l2.91-8A1.454 1.454 0 0 1 4.363 0h7.272a1.454 1.454 0 0 1 1.455 1.455v8A6.56 6.56 0 0 1 6.546 16ZM2.909 9.687a3.622 3.622 0 0 0 2.066 3.026 3.33 3.33 0 0 0 1.57.378 3.636 3.636 0 0 0 3.637-3.636V2.909h-4.8L2.909 9.687ZM25.455 16a6.56 6.56 0 0 1-6.546-6.545v-8A1.454 1.454 0 0 1 20.364 0h7.273a1.455 1.455 0 0 1 1.367.96l2.909 8c.057.159.087.326.087.495a6.53 6.53 0 0 1-3.753 5.905 6.08 6.08 0 0 1-2.792.64ZM21.818 2.91v6.545a3.636 3.636 0 0 0 3.637 3.636 3.258 3.258 0 0 0 1.454-.35 3.65 3.65 0 0 0 2.182-3.054L26.618 2.91h-4.8Z" fill="#E9793A"/><path d="M27.637 32H4.364a1.454 1.454 0 0 1-1.455-1.454v-16.51a1.455 1.455 0 0 1 .698-1.236 1.454 1.454 0 0 1 1.455 0c.451.228.95.347 1.454.35a3.638 3.638 0 0 0 3.666-3.695 1.455 1.455 0 0 1 2.909 0v.727a2.91 2.91 0 1 0 5.818 0v-.727a1.454 1.454 0 1 1 2.91 0 3.636 3.636 0 0 0 3.636 3.636 3.258 3.258 0 0 0 1.454-.35 1.455 1.455 0 0 1 1.455 0 1.455 1.455 0 0 1 .698 1.237v16.568A1.454 1.454 0 0 1 27.637 32ZM5.818 29.09h20.364V16a5.922 5.922 0 0 1-.727 0 6.56 6.56 0 0 1-4.902-2.21 5.817 5.817 0 0 1-9.106 0A6.618 6.618 0 0 1 5.818 16v13.09Z" fill="#E9793A"/><path d="M30.546 32H1.455a1.454 1.454 0 1 1 0-2.91h29.09a1.455 1.455 0 0 1 0 2.91Z" fill="#E9793A"/><path d="M20.364 32h-8.728a1.455 1.455 0 0 1-1.454-1.454V20.364a1.455 1.455 0 0 1 1.454-1.455h8.728a1.454 1.454 0 0 1 1.454 1.455v10.181A1.455 1.455 0 0 1 20.364 32Zm-7.273-2.909h5.818v-7.273h-5.818v7.273Z" fill="#E9793A"/></svg>