<svg width="114" height="41" fill="none" xmlns="http://www.w3.org/2000/svg"><g clip-path="url(#a)" fill-rule="evenodd" clip-rule="evenodd" fill="#2C9323"><path d="M111.763 2.453a7.437 7.437 0 0 0-10.488 0L76.385 27.79a7.86 7.86 0 0 0 0 10.933 7.412 7.412 0 0 0 5.33 2.269 7.396 7.396 0 0 0 5.332-2.269l24.716-25.3a7.896 7.896 0 0 0 0-10.969Z"/><path d="M51.704 2.453A7.445 7.445 0 0 1 57.034.2a7.43 7.43 0 0 1 5.332 2.253L87.082 27.79a7.86 7.86 0 0 1 0 10.933 7.41 7.41 0 0 1-5.331 2.269 7.395 7.395 0 0 1-5.332-2.269l-24.715-25.3a7.86 7.86 0 0 1 0-10.969Z"/><path d="M62.401 2.453A7.41 7.41 0 0 0 57.07.185a7.396 7.396 0 0 0-5.331 2.268L27.023 27.789a7.86 7.86 0 0 0 0 10.933 7.445 7.445 0 0 0 5.331 2.253 7.43 7.43 0 0 0 5.331-2.253l24.716-25.336a7.86 7.86 0 0 0 0-10.933Z"/><path d="M2.202 2.278A7.446 7.446 0 0 1 7.534.025a7.43 7.43 0 0 1 5.33 2.253L37.58 27.614a7.86 7.86 0 0 1 0 10.933 7.445 7.445 0 0 1-5.33 2.253 7.43 7.43 0 0 1-5.332-2.253L2.202 13.211a7.86 7.86 0 0 1 0-10.933Z"/></g><defs><clipPath id="a"><path fill="#fff" d="M0 0h114v41H0z"/></clipPath></defs></svg>