<svg xmlns="http://www.w3.org/2000/svg"><symbol id="icon-account" viewBox="0 0 22 26"><g clip-path="url(#a)" stroke-width="2" stroke-miterlimit="10"><circle cx="11" cy="8" r="6"/><path d="M1 24a6 6 0 0 1 6-6h8a6 6 0 0 1 6 6v3H1v-3Z"/></g><defs><clipPath id="a"><path d="M0 0h22v26H0z"/></clipPath></defs></symbol><symbol id="icon-arrow-catalog" viewBox="0 0 12 8"><path d="m1 1 5 5 5-5" stroke-width="2"/></symbol><symbol id="icon-arrow-deal-card" viewBox="0 0 11 14"><path d="M5.31 10.626h1.703l-2.196 2.196L5.995 14l4.225-4.225-.026-.027.026-.027-4.218-4.218L4.824 6.68l2.282 2.282H5.31a3.652 3.652 0 0 1-3.646-3.646A3.658 3.658 0 0 1 5.31 1.663 3.652 3.652 0 0 1 8.956 5.31h1.664A5.316 5.316 0 0 0 5.31 0 5.316 5.316 0 0 0 0 5.31c0 2.928 2.382 5.316 5.31 5.316Z"/></symbol><symbol id="icon-arrow-filter" viewBox="0 0 9 14"><path d="m1 1 6 6-6 6" stroke-width="2"/></symbol><symbol id="icon-arrow-header" viewBox="0 0 10 7"><path d="m1 1 4 4 4-4" stroke-width="2"/></symbol><symbol id="icon-arrow-search-card" viewBox="0 0 9 15"><path d="m1 13.5 6-6-6-6" stroke-width="2"/></symbol><symbol id="icon-arrow-to-top" viewBox="0 0 14 9"><path d="m1 8 6-6 6 6" stroke-width="2"/></symbol><symbol id="icon-basket-deal-card" viewBox="0 0 21 20"><g clip-path="url(#a)" stroke-width="2" stroke-miterlimit="10"><path d="M1.69 8c-.07-.345.206-.759.551-.828h17.104c.414 0 .69.276.69.69V8L18.24 18.345c-.069.345-.345.552-.69.552H4.173c-.344 0-.62-.207-.69-.552L1.69 8Z"/><path d="M8.448.965 5.69 6.483M13.276.965l2.759 5.518-2.76-5.518Z" stroke-linecap="round" stroke-linejoin="round"/></g><defs><clipPath id="a"><path d="M0 0h21v20H0z"/></clipPath></defs></symbol><symbol id="icon-basket" viewBox="0 0 30 29"><path d="M2 11.6c-.1-.5.3-1.1.8-1.2h24.8c.6 0 1 .4 1 1v.2l-2.6 15c-.1.5-.5.8-1 .8H5.6c-.5 0-.9-.3-1-.8L2 11.6Z" stroke-width="2" stroke-miterlimit="10"/><path d="m11.8 1.4-4 8m11-8 4 8-4-8Z" stroke-width="2" stroke-miterlimit="10" stroke-linecap="round" stroke-linejoin="round"/></symbol><symbol id="icon-benefits-delivery" viewBox="0 0 45 32"><path d="M8.742 8.8H5.516c-.7 0-1.262.562-1.262 1.263 0 .701.561 1.262 1.262 1.262h3.226c.701 0 1.262-.56 1.262-1.262 0-.701-.56-1.262-1.262-1.262Zm0 5.938H3.366c-.701 0-1.262.56-1.262 1.262 0 .701.56 1.262 1.262 1.262h5.376c.701 0 1.262-.56 1.262-1.262 0-.701-.56-1.262-1.262-1.262Zm0 5.89h-7.48c-.701 0-1.262.56-1.262 1.262 0 .701.561 1.262 1.262 1.262h7.48c.701 0 1.262-.56 1.262-1.262 0-.701-.56-1.262-1.262-1.262ZM43.664 6.697 29.452.105a1.427 1.427 0 0 0-1.075 0L14.165 6.697c-.467.187-.748.654-.748 1.169V24.18c0 .514.28.935.748 1.169l14.212 6.545c.327.14.748.14 1.075 0l14.212-6.592c.468-.187.748-.654.748-1.169V7.866c0-.515-.28-.935-.748-1.17ZM27.629 28.763 15.942 23.34V9.83l4.3 2.01v7.48c0 .7.561 1.261 1.263 1.261.701 0 1.262-.56 1.262-1.262v-6.311l4.862 2.244v13.51Zm1.309-15.708-4.348-2.01 4.675-2.15c.655-.281.935-1.03.608-1.684a1.213 1.213 0 0 0-1.683-.608L21.598 9.69l-3.833-1.777 11.22-5.189 11.22 5.19-11.267 5.142Zm12.95 10.285L30.2 28.763V15.252l11.688-5.423v13.51Z"/><path d="M33.8 19.226a.942.942 0 0 0 .514-.14l4.441-2.058c.655-.28.935-1.028.608-1.683a1.213 1.213 0 0 0-1.683-.607l-4.441 2.057a1.213 1.213 0 0 0-.608 1.683c.234.467.701.748 1.169.748Zm0 4.768a.942.942 0 0 0 .514-.14l4.441-2.057c.655-.28.935-1.029.608-1.683a1.213 1.213 0 0 0-1.683-.608l-4.441 2.057a1.213 1.213 0 0 0-.608 1.683 1.33 1.33 0 0 0 1.169.748Z"/></symbol><symbol id="icon-benefits-discount" viewBox="0 0 40 26"><rect x="1.25" y="1.25" width="37.5" height="23.5" rx="1.75" stroke-width="2.5" stroke-linecap="round" stroke-linejoin="round"/><path d="M1.667 6.5h36.666M6.74 13.054h9.094m-9.094 3.9h4.928M25.833 19.5l8.334-8.125" stroke-width="2.5" stroke-linecap="round"/><path d="M28.167 12.188c0 .77-.648 1.437-1.5 1.437-.853 0-1.5-.667-1.5-1.438 0-.77.647-1.437 1.5-1.437.852 0 1.5.667 1.5 1.438Zm6.666 6.5c0 .77-.647 1.437-1.5 1.437-.852 0-1.5-.667-1.5-1.438 0-.77.648-1.437 1.5-1.437.853 0 1.5.667 1.5 1.438Z" stroke-width="2"/></symbol><symbol id="icon-benefits-outlets" viewBox="0 0 32 32"><path d="M16 16a5.818 5.818 0 0 1-5.818-5.818V1.455A1.454 1.454 0 0 1 11.636 0h8.728a1.454 1.454 0 0 1 1.454 1.455v8.727A5.818 5.818 0 0 1 16 16ZM13.091 2.91v7.272a2.91 2.91 0 0 0 5.818 0V2.909h-5.818Z"/><path d="M6.546 16c-1.01.02-2.01-.21-2.91-.67A6.502 6.502 0 0 1 0 9.456c0-.17.03-.336.087-.495l2.91-8A1.454 1.454 0 0 1 4.363 0h7.272a1.454 1.454 0 0 1 1.455 1.455v8A6.56 6.56 0 0 1 6.546 16ZM2.909 9.687a3.622 3.622 0 0 0 2.066 3.026 3.33 3.33 0 0 0 1.57.378 3.636 3.636 0 0 0 3.637-3.636V2.909h-4.8L2.909 9.687ZM25.455 16a6.56 6.56 0 0 1-6.546-6.545v-8A1.454 1.454 0 0 1 20.364 0h7.273a1.455 1.455 0 0 1 1.367.96l2.909 8c.057.159.087.326.087.495a6.53 6.53 0 0 1-3.753 5.905 6.08 6.08 0 0 1-2.792.64ZM21.818 2.91v6.545a3.636 3.636 0 0 0 3.637 3.636 3.258 3.258 0 0 0 1.454-.35 3.65 3.65 0 0 0 2.182-3.054L26.618 2.91h-4.8Z"/><path d="M27.637 32H4.364a1.454 1.454 0 0 1-1.455-1.454v-16.51a1.455 1.455 0 0 1 .698-1.236 1.454 1.454 0 0 1 1.455 0c.451.228.95.347 1.454.35a3.638 3.638 0 0 0 3.666-3.695 1.455 1.455 0 0 1 2.909 0v.727a2.91 2.91 0 1 0 5.818 0v-.727a1.454 1.454 0 1 1 2.91 0 3.636 3.636 0 0 0 3.636 3.636 3.258 3.258 0 0 0 1.454-.35 1.455 1.455 0 0 1 1.455 0 1.455 1.455 0 0 1 .698 1.237v16.568A1.454 1.454 0 0 1 27.637 32ZM5.818 29.09h20.364V16a5.922 5.922 0 0 1-.727 0 6.56 6.56 0 0 1-4.902-2.21 5.817 5.817 0 0 1-9.106 0A6.618 6.618 0 0 1 5.818 16v13.09Z"/><path d="M30.546 32H1.455a1.454 1.454 0 1 1 0-2.91h29.09a1.455 1.455 0 0 1 0 2.91Z"/><path d="M20.364 32h-8.728a1.455 1.455 0 0 1-1.454-1.454V20.364a1.455 1.455 0 0 1 1.454-1.455h8.728a1.454 1.454 0 0 1 1.454 1.455v10.181A1.455 1.455 0 0 1 20.364 32Zm-7.273-2.909h5.818v-7.273h-5.818v7.273Z"/></symbol><symbol id="icon-benefits-sale" viewBox="0 0 30 32"><g clip-path="url(#a)"><path d="M1.59 32V19.02l-.213-.106C.53 18.437 0 17.484 0 16.53v-5.298a2.736 2.736 0 0 1 2.755-2.755h1.324l-.317-.636a5.504 5.504 0 0 1-.583-2.437c0-1.43.583-2.808 1.59-3.815A5.417 5.417 0 0 1 8.582 0a7.603 7.603 0 0 1 6.04 3.02l.317.477.318-.477A7.603 7.603 0 0 1 21.298 0c.848 0 1.695.212 2.437.583 2.65 1.377 3.709 4.609 2.331 7.258l-.265.636h1.325a2.736 2.736 0 0 1 2.755 2.755v5.298c0 .953-.53 1.907-1.378 2.384l-.212.106V32H1.59Zm14.516-2.331h9.854V19.285h-9.854v10.384Zm-12.185 0h9.854V19.285H3.92v10.384Zm12.185-12.715H27.55v-6.146H16.106v6.146Zm-13.775 0h11.444v-6.146H2.33v6.146ZM21.298 2.33a5.2 5.2 0 0 0-5.192 5.192v.954h5.192a3.075 3.075 0 0 0 3.073-3.073 3.075 3.075 0 0 0-3.073-3.073Zm-12.715 0A3.075 3.075 0 0 0 5.51 5.404a3.075 3.075 0 0 0 3.073 3.073h5.192v-.954a5.2 5.2 0 0 0-5.192-5.192Z"/></g><defs><clipPath id="a"><path d="M0 0h29.881v32H0z"/></clipPath></defs></symbol><symbol id="icon-chat" viewBox="0 0 34 33"><path d="M13.667 0h6.666a13.333 13.333 0 1 1 0 26.667V32.5c-8.333-3.333-20-8.333-20-19.167A13.333 13.333 0 0 1 13.667 0Z"/></symbol><symbol id="icon-favorite" viewBox="0 0 32 32"><path d="m15.885 6.798.672.587.66-.601c2.712-2.473 7.108-2.358 9.709.239a6.989 6.989 0 0 1 .25 9.678L16.535 27.578 5.779 16.84c-2.48-2.855-2.339-7.1.246-9.681 2.739-2.735 7.01-2.85 9.86-.36Z" stroke-width="2"/></symbol><symbol id="icon-fb" viewBox="0 0 12 24"><path d="M8 13.8h2.857L12 9H8V6.6c0-1.236 0-2.4 2.286-2.4H12V.168C11.627.116 10.22 0 8.735 0 5.632 0 3.429 1.988 3.429 5.64V9H0v4.8h3.429V24H8V13.8Z"/></symbol><symbol id="icon-geo" viewBox="0 0 12 14"><path d="M9.982 9.935 5.834 14 1.686 9.871a5.783 5.783 0 0 1 0-8.194c2.268-2.258 5.963-2.258 8.231 0 2.334 2.323 2.334 5.936.065 8.258ZM5.834 7.742c1.102 0 1.944-.839 1.944-1.936 0-1.096-.842-1.935-1.944-1.935-1.102 0-1.944.839-1.944 1.935 0 1.097.842 1.936 1.944 1.936Z"/></symbol><symbol id="icon-inst" viewBox="0 0 24 24"><path d="M11.625 8.4c-.925 0-1.812.38-2.466 1.054A3.66 3.66 0 0 0 8.137 12c0 .955.368 1.87 1.022 2.546a3.433 3.433 0 0 0 2.466 1.054c.925 0 1.812-.38 2.466-1.054A3.66 3.66 0 0 0 15.113 12a3.66 3.66 0 0 0-1.022-2.546A3.433 3.433 0 0 0 11.625 8.4Zm0-2.4c1.542 0 3.02.632 4.11 1.757A6.1 6.1 0 0 1 17.438 12a6.1 6.1 0 0 1-1.703 4.243A5.722 5.722 0 0 1 11.625 18a5.722 5.722 0 0 1-4.11-1.757A6.1 6.1 0 0 1 5.813 12a6.1 6.1 0 0 1 1.702-4.243A5.722 5.722 0 0 1 11.625 6Zm7.556-.3c0 .398-.153.78-.425 1.06a1.43 1.43 0 0 1-1.028.44 1.43 1.43 0 0 1-1.027-.44 1.525 1.525 0 0 1-.426-1.06c0-.398.153-.78.426-1.06a1.43 1.43 0 0 1 1.027-.44c.385 0 .755.158 1.028.44.272.28.425.662.425 1.06Zm-7.556-3.3c-2.876 0-3.346.008-4.684.07-.911.044-1.523.17-2.09.398a3.347 3.347 0 0 0-1.255.844 3.48 3.48 0 0 0-.819 1.296c-.22.588-.343 1.218-.385 2.157-.06 1.325-.067 1.788-.067 4.835 0 2.969.008 3.454.067 4.835.043.94.166 1.572.385 2.156.198.522.43.898.816 1.296.392.403.756.645 1.256.844.574.229 1.186.356 2.092.4 1.284.062 1.732.069 4.684.069 2.876 0 3.346-.008 4.684-.07.909-.044 1.521-.17 2.089-.397.503-.203.87-.444 1.255-.842.392-.405.626-.78.819-1.296.22-.592.344-1.224.386-2.16.06-1.325.067-1.788.067-4.835 0-2.969-.008-3.454-.067-4.835-.043-.938-.166-1.572-.386-2.157a3.506 3.506 0 0 0-.818-1.296 3.345 3.345 0 0 0-1.255-.845c-.57-.228-1.181-.354-2.09-.397-1.284-.063-1.732-.07-4.684-.07Zm0-2.4c3.159 0 3.553.012 4.792.072 1.238.06 2.08.26 2.822.558a5.653 5.653 0 0 1 2.06 1.384 5.913 5.913 0 0 1 1.34 2.126c.288.764.483 1.636.541 2.914.055 1.279.07 1.686.07 4.946s-.012 3.667-.07 4.946c-.058 1.278-.253 2.148-.54 2.914a5.882 5.882 0 0 1-1.34 2.126 5.7 5.7 0 0 1-2.06 1.384c-.741.296-1.585.498-2.823.558-1.24.056-1.634.072-4.792.072-3.159 0-3.553-.012-4.792-.072-1.238-.06-2.08-.262-2.822-.558a5.67 5.67 0 0 1-2.06-1.384A5.907 5.907 0 0 1 .61 19.86c-.289-.764-.483-1.636-.541-2.914C.015 15.667 0 15.26 0 12s.012-3.667.07-4.946c.058-1.28.252-2.148.54-2.914a5.878 5.878 0 0 1 1.34-2.126A5.679 5.679 0 0 1 4.01.63C4.753.332 5.595.132 6.834.072 8.073.016 8.466 0 11.625 0Z"/></symbol><symbol id="icon-logo" viewBox="0 0 114 41"><g clip-path="url(#a)" fill-rule="evenodd" clip-rule="evenodd"><path d="M111.763 2.453a7.437 7.437 0 0 0-10.488 0L76.385 27.79a7.86 7.86 0 0 0 0 10.933 7.412 7.412 0 0 0 5.33 2.269 7.396 7.396 0 0 0 5.332-2.269l24.716-25.3a7.896 7.896 0 0 0 0-10.969Z"/><path d="M51.704 2.453A7.445 7.445 0 0 1 57.034.2a7.43 7.43 0 0 1 5.332 2.253L87.082 27.79a7.86 7.86 0 0 1 0 10.933 7.41 7.41 0 0 1-5.331 2.269 7.395 7.395 0 0 1-5.332-2.269l-24.715-25.3a7.86 7.86 0 0 1 0-10.969Z"/><path d="M62.401 2.453A7.41 7.41 0 0 0 57.07.185a7.396 7.396 0 0 0-5.331 2.268L27.023 27.789a7.86 7.86 0 0 0 0 10.933 7.445 7.445 0 0 0 5.331 2.253 7.43 7.43 0 0 0 5.331-2.253l24.716-25.336a7.86 7.86 0 0 0 0-10.933Z"/><path d="M2.202 2.278A7.446 7.446 0 0 1 7.534.025a7.43 7.43 0 0 1 5.33 2.253L37.58 27.614a7.86 7.86 0 0 1 0 10.933 7.445 7.445 0 0 1-5.33 2.253 7.43 7.43 0 0 1-5.332-2.253L2.202 13.211a7.86 7.86 0 0 1 0-10.933Z"/></g><defs><clipPath id="a"><path d="M0 0h114v41H0z"/></clipPath></defs></symbol><symbol id="icon-mail" viewBox="0 0 27 24"><path d="M1.333 0h24a1.334 1.334 0 0 1 1.334 1.333v21.334A1.334 1.334 0 0 1 25.333 24h-24A1.334 1.334 0 0 1 0 22.667V1.333A1.333 1.333 0 0 1 1.333 0ZM24 5.65l-10.57 9.467L2.666 5.621v15.712H24V5.651ZM3.348 2.668l10.067 8.882 9.921-8.882H3.348Z"/></symbol><symbol id="icon-play-img" viewBox="0 0 17 20"><path d="M0 18.207V1.704A1 1 0 0 1 1.488.831l14.027 7.84a1 1 0 0 1 .038 1.723L1.525 19.058A1 1 0 0 1 0 18.207Z"/></symbol><symbol id="icon-search" viewBox="0 0 32 32"><circle cx="14" cy="14" r="10" stroke-width="2" stroke-miterlimit="10"/><path stroke-width="2" stroke-miterlimit="10" stroke-linecap="round" d="M21.414 21 28 27.586"/></symbol><symbol id="icon-star-rating" viewBox="0 0 12 12"><path d="M5.53 1.3a.5.5 0 0 1 .94 0l1.106 3.054a.5.5 0 0 0 .453.33l3.248.107a.5.5 0 0 1 .29.894L9.003 7.681a.5.5 0 0 0-.173.533l.901 3.122a.5.5 0 0 1-.76.553l-2.69-1.822a.5.5 0 0 0-.561 0l-2.69 1.822a.5.5 0 0 1-.761-.553l.9-3.122a.5.5 0 0 0-.172-.533L.433 5.685a.5.5 0 0 1 .29-.894l3.248-.107a.5.5 0 0 0 .453-.33L5.53 1.3Z"/></symbol><symbol id="icon-viber" viewBox="0 0 22 24"><path d="M21.3 13.05c.3-2.7.3-4.95 0-6.9a7.05 7.05 0 0 0-2.1-4.05L18 1.35l-2.7-.9C14.1.15 12.6 0 11.1 0h-.6a22.95 22.95 0 0 0-6.15 1.05c-.9.3-1.5.75-2.1 1.2C.75 3.75.15 6 0 9.15v2.1l.15 2.25.75 2.25a6 6 0 0 0 4.05 3.3c.046 1.65.096 3.3.15 4.95l.45-.15 3.6-4.35a25.96 25.96 0 0 0 8.1-.9 49.621 49.621 0 0 0 1.8-1.05l1.05-1.05.75-1.5.45-2.1v.15ZM14.1 9c0 .3-.15.45-.45.45L13.5 9c0-1.2-.6-1.8-1.65-1.8l-.3-.15V6.6h.3c1.5 0 2.25.75 2.4 2.25L14.1 9Zm1.05.6c0-1.05-.3-2.1-1.05-2.85s-1.65-1.2-3-1.2l-.3-.3v-.3l.45-.15c1.5 0 2.55.6 3.3 1.5.9.9 1.2 2.1 1.2 3.3v.3h-.45l-.15-.3Zm2.4.75-.15.3h-.3l-.15-.3c0-2.1-.75-3.6-1.95-4.8a6 6 0 0 0-4.5-1.8c-.15 0-.3 0-.3-.3s.15-.45.3-.45a7.05 7.05 0 0 1 7.05 7.2v.15Zm-.6 5.1-1.2 1.5c-.45.3-1.05.45-1.5.15a21.301 21.301 0 0 1-5.4-3A13.65 13.65 0 0 1 5.1 9.6c-.5-.875-.95-1.776-1.35-2.7v-.15c-.15-.6 0-1.05.3-1.5l1.5-1.35c.45-.15.9 0 1.2.3A48.45 48.45 0 0 0 8.4 6.6c.45.6.3 1.05 0 1.5l-.75.3-.3.3v.9l.6.9.75 1.2 1.2 1.05 1.8.9c.3 0 .6 0 .75-.3l.6-.6c.3-.45.75-.6 1.35-.3l2.4 1.8c.3.3.45.75.15 1.2Z"/></symbol></svg>